<svg version="1.1" xmlns="http://www.w3.org/2000/svg" xmlns:xlink="http://www.w3.org/1999/xlink" width="501.62797" height="390.00545" viewBox="0,0,501.62797,390.00545"><defs><radialGradient cx="189.32621" cy="32.21476" r="65.57785" gradientUnits="userSpaceOnUse" id="color-1"><stop offset="0" stop-color="#000000" stop-opacity="0"/><stop offset="1" stop-color="#000000" stop-opacity="0"/></radialGradient></defs><g transform="translate(3.14904,19.6815)"><g data-paper-data="{&quot;isPaintingLayer&quot;:true}" fill-rule="nonzero" stroke-linecap="butt" stroke-linejoin="miter" stroke-miterlimit="10" stroke-dasharray="" stroke-dashoffset="0" style="mix-blend-mode: normal"><path d="M1,-0.99998h480v71.63699c-0.97119,0.0386 -1.92841,0.11548 -2.85943,0.25153c-4.07745,0.59583 -7.80087,1.5742 -12.02474,1.5742c0,0 -10,0 -10,10c0,8.77508 7.70021,9.84996 9.58663,9.98162c1.29409,3.88123 4.18786,8.14269 4.03993,12.16155c-0.12727,3.45762 0.3756,6.37621 0.92658,9.73844c0.89267,5.44726 -0.07492,11.95374 -0.07492,17.5147c0,5.96162 0,11.92325 0,17.88487c0,2.89114 0.70314,6.68275 0.12913,9.46976c-0.51284,2.48999 -0.94178,5.02149 -0.98079,7.56345c-0.02837,1.84901 0.51061,5.06255 0.12913,6.91478c-0.51563,2.50355 -1.22633,5.03285 -1.14343,7.63716c-4.97822,4.01134 -2.73083,10.7535 -2.73083,10.7535c0.89047,2.48759 2.04474,5.14342 3.39661,7.60454c-1.3803,1.71451 -2.20646,3.89397 -2.20646,6.26639v4.2583h0.64612c-0.13758,0.37892 -0.26592,0.76152 -0.38393,1.14824c-0.12747,0.01654 -0.25436,0.03402 -0.38062,0.05247c-1.18138,0.17263 -2.32502,0.88281 -3.50814,0.72253h-2.55498c-4.56452,0 -8.41476,3.0582 -9.61351,7.2374c-2.95829,0.79204 -7.19977,3.06322 -7.19977,9.57589c0,10 10,10 10,10h0.85166c2.73415,0 4.30556,0.41843 6.91478,0.72253c6.18434,0.72079 12.76193,0.34931 19.04097,-0.2606v119.58977h-480zM298.42395,176.50366c1.40636,-1.72257 2.24984,-3.92273 2.24984,-6.3199c0,-5.52284 -4.47715,-10 -10,-10h-4.2583c-0.56777,0 -1.13555,-0.00002 -1.70332,-0.00005c-0.17941,-1.67364 -3.33129,-0.03928 -5.0493,-0.00064c-11.37569,-0.00211 -22.75141,-0.00777 -34.12708,0.00069c-4.14392,0.00308 -12.32632,-0.02033 -14.44259,1.43697c-0.62556,0.43078 -1.19744,0.91622 -1.72743,1.44434c-0.06091,0.01597 -0.12161,0.03251 -0.18206,0.04959l-0.2665,-0.39975l-2.42593,1.61728c-2.75701,1.78054 -4.58205,4.88041 -4.58205,8.40654c0,4.44104 2.89498,8.20592 6.90073,9.51045c-0.05719,0.49123 -0.08745,1.01105 -0.08745,1.56114c0,10 10,10 10,10c5.67774,0 11.35547,0 17.03321,0c1.74949,0 4.38378,-0.47501 6.06313,-0.12913c2.56199,0.52767 5.08499,1.32631 7.66494,1.70332c5.99342,0.87581 12.58058,0.12913 18.63503,0.12913c0.38707,0 0.77413,0 1.1612,0c0.2917,0.07615 0.57635,0.09282 0.84992,0c0.18129,0 0.36257,0 0.54386,0l-0.13288,-0.20154c0.04436,-0.02391 0.08865,-0.04793 0.13288,-0.07205v0.2736h3.40665c5.52285,0 10,-4.47716 10,-10c0,-3.96634 -2.30918,-7.39336 -5.65649,-9.00998zM199.54613,190.40368c5.52285,0 10,-4.47715 10,-10c0,-5.52285 -4.47715,-10 -10,-10c-5.52285,0 -10,4.47715 -10,10c0,5.52285 4.47715,10 10,10z" fill="#fcfeff" stroke="#e7e9ea" stroke-width="0.29351"/><path d="M80,0.00002h71v287.0924h-71z" fill="#1505ff" stroke="#1505ff" stroke-width="1.95434"/><path d="M241.0763,215.89542h167.8948v144.2086h-167.8948z" fill="#1505ff" stroke="#1505ff" stroke-width="4.49908"/><path d="M237,-0.14998h55v136.3373h-55z" fill="#1505ff" stroke="#1505ff" stroke-width="1.83908"/><path d="M363.1273,63.03442h46.7727v150.9735h-46.7727z" fill="#1505ff" stroke="#1505ff" stroke-width="2.12925"/><path d="M181.14122,60.38066c0.79057,-2.37171 3.16228,-1.58114 3.16228,-1.58114l2.16486,0.75565c4.59121,-0.03762 8.85027,0.4354 13.40333,0.82567c6.97801,0.59812 13.80454,-0.31562 20.66308,0.87765c1.9578,0.34063 3.99502,-0.28542 5.96162,0c1.77684,0.25787 3.32796,1.48394 5.10996,1.70332c1.5162,0.18666 3.24714,-0.6673 4.58231,0.07499c0.21319,0.11852 0.4144,0.25187 0.60568,0.39752l0.05661,-0.08492l2.52272,1.68181c0.68926,0.44513 1.14552,1.22011 1.14552,2.10164c0,1.38071 -1.11929,2.5 -2.5,2.5c-4.2583,0 -11.07159,0 -15.32989,0c-28.95646,0 -57.9129,0 -86.86936,0c0,0 -2.5,0 -2.5,-2.5c0,-2.5 2.5,-2.5 2.5,-2.5c18.09217,0 36.18434,0 54.27652,0c-1.45539,-0.07936 -2.92476,-0.13184 -4.42901,-0.14225l-2.9451,-0.94767c0,0 -2.37171,-0.79057 -1.58114,-3.16228z" fill="#1505ff" stroke="none" stroke-width="0.5"/><path d="M220.17874,30.45648c-0.21649,0.01029 -0.43296,0.02046 -0.64944,0.03051c-0.17814,0.42947 -0.38101,0.84182 -0.63018,1.22207c0.61802,-0.21415 1.23244,-0.4221 1.84563,-0.62165c0.04293,-0.21013 0.08531,-0.42044 0.12717,-0.63093c-0.23106,0 -0.46212,0 -0.69318,0zM145.24319,48.39632c0,-1.09231 0.70054,-2.021 1.67684,-2.36131l0.64746,-0.2428c-3.6443,0.3988 -7.2934,0.76821 -10.94995,1.08967c-1.33073,0.33962 -2.66022,0.78316 -3.99803,0.59929c-0.069,-0.00948 -0.13773,-0.01998 -0.20621,-0.03144v0.03996h-3.40664v0c-1.38071,0 -2.5,-1.11929 -2.5,-2.5c0,-0.35674 0.07472,-0.69602 0.20936,-1.00306c-0.06471,-0.22219 -0.0994,-0.45717 -0.0994,-0.70026c0,-1.17488 0.81044,-2.16048 1.90277,-2.42822l4.77623,-1.28472l0.12651,0.47033c2.20041,-0.99574 4.44048,-1.86695 6.74241,-2.65418c-0.88979,0.0504 -1.77551,0.06155 -2.64128,-0.11981h-2.55498c-0.00575,0 -0.0115,-0.00001 -0.01724,-0.00005c-0.69926,0.00006 -1.39856,0.00005 -2.09789,0.00005h-0.03913c-0.64244,0.10464 -1.28168,0.13649 -1.91347,0h-3.04739c-1.38071,0 -2.5,-1.11929 -2.5,-2.5c0,-1.38071 1.11929,-2.5 2.5,-2.5h2.70441c1.48295,-0.61676 3.18564,-0.42565 4.77815,-0.63889c0.75035,-0.10047 1.49955,-0.20266 2.24801,-0.30513c9.26383,-2.36415 18.71251,-5.52667 28.18909,-6.72037c9.093,-1.14538 18.69814,-0.85832 27.86219,-0.84973c6.23603,0.00585 14.3703,-1.29565 20.41028,0.36309c1.13503,0.31171 2.21401,0.78087 3.27727,1.29416c1.22598,-0.06125 2.86241,-0.17394 4.53012,-0.25115c0.69423,-3.87772 1.39916,-7.75908 2.50536,-11.52614c0.68035,-2.31689 1.49122,-4.59878 2.16344,-6.91731c0.18866,-4.09865 0.32668,-8.18053 1.33276,-12.20745v-4.76911c0,-1.38071 1.11929,-2.5 2.5,-2.5c1.22474,0 2.24378,0.88068 2.45839,2.04332l0.66303,3.22954c0.34107,-0.17446 0.72749,-0.27286 1.13689,-0.27286c0.50011,0 0.96594,0.14684 1.35668,0.39978c0.32856,-2.3105 0.70171,-4.61205 1.14381,-6.89981l0.11075,-3.00412c0.04271,-1.34326 1.14507,-2.41909 2.49872,-2.41909c1.38071,0 2.5,1.11929 2.5,2.5v5c0.90822,4.39238 -0.05955,10.15298 -0.44004,14.56505c-0.42124,4.88462 -0.40749,10.13639 -1.3047,14.95455c-0.62023,3.33072 -1.80539,6.53154 -2.63811,9.81559l-1.21626,4.79552c-0.12932,0.56131 -0.44764,1.05038 -0.88435,1.39659c-0.1147,0.35563 -0.239,0.7032 -0.37412,1.04132l-0.23627,1.29561c0.2676,-0.88394 0.55446,-1.75354 1.13455,-2.40277l1.11649,-2.79123c0.24526,-0.65685 0.75885,-1.18286 1.40741,-1.44471c0.69138,-1.56422 1.38081,-3.13445 2.08117,-4.70947l0.04091,-0.04302l-0.01609,-0.00805l1.6791,-3.3582c0.40086,-0.84561 1.26228,-1.43041 2.26029,-1.43041c1.38071,0 2.5,1.11929 2.5,2.5v2.55498h-0.05185c0.01316,0.11482 0.02251,0.23037 0.02768,0.34675c0.07861,1.77017 -0.9733,3.40768 -1.43729,5.11777c-1.37389,5.06369 -3.36118,9.43429 -5.53803,14.20676l-0.1465,0.12458l0.05219,0.03375l-1.44187,2.22938l2.88573,-0.64128c0.19069,-0.04655 0.38995,-0.07123 0.59497,-0.07123c1.38071,0 2.5,1.11929 2.5,2.5c0,0.9655 -0.54732,1.80318 -1.34862,2.21967l-2.89219,1.57566c-0.79183,0.43084 -1.57211,0.88433 -2.35915,1.32456c0.12855,0.03343 0.25605,0.07256 0.38238,0.11809c1.60197,0.57729 2.98634,1.59526 4.36237,2.63011c1.47904,0.06253 2.95708,0.15 4.43376,0.27113l7.27594,2.99557c-2.12775,0.81226 -4.18576,1.83834 -6.38324,2.43679c-1.98827,0.54147 -4.09489,0.19794 -6.17478,0.05428c-0.24914,0.68834 -0.79193,1.23606 -1.47704,1.49187l-4.20423,1.68169c-0.61731,0.24693 -8.57762,3.44573 -8.97231,3.54034c-4.96538,1.19025 -10.94597,-0.48093 -15.94091,-0.81037c-11.66663,-0.76949 -23.52684,-0.84784 -35.21967,-0.84784c-0.10062,0 -0.20123,0 -0.30185,0c-2.78085,0.571 -5.67773,0 -8.5166,0v0c-1.66666,0 -9.51488,0 -11.18155,0l-3.47033,-1.73516c-0.04918,0.00114 -0.09833,0.00226 -0.14746,0.00335c-0.78798,0.01752 -1.57002,0.02849 -2.34383,0.02849c0,0 -1.31934,0 -2.04115,-0.95845l-0.91752,-0.04965c-3.98219,-0.57471 -7.46211,-1.53493 -11.36525,-2.31817c-0.26737,-0.05365 -0.53808,-0.09739 -0.81056,-0.13589c-2.05879,0.0333 -4.11211,0.05551 -6.15703,0.05551c0,0 -2.5,0 -2.5,-2.5c0,-0.06126 0.0015,-0.12101 0.00443,-0.1793l-0.08216,-0.03287c-0.94948,-0.35453 -1.62559,-1.26971 -1.62559,-2.34282c0,-1.22888 0.88665,-2.25067 2.05512,-2.46053l4.21289,-0.84258l0.01467,0.07333l0.22928,-0.10971c3.4433,-0.00947 6.88661,-0.01311 10.32992,-0.01415c-0.00036,-0.01762 -0.00055,-0.03529 -0.00055,-0.053c0,-0.74233 0.32355,-1.4091 0.83732,-1.86698l1.88676,-1.69573l0.04424,0.04923c0.16627,-0.16181 0.34609,-0.3103 0.54254,-0.44244c0.14602,-0.09822 0.297,-0.18431 0.45229,-0.25993c-0.10636,-0.27763 -0.16463,-0.57907 -0.16463,-0.89411zM209.58628,30.88335c-1.56754,0.05504 -3.13503,0.10789 -4.70246,0.16046l2.06882,0.41376c0.20944,0.03762 0.40984,0.10132 0.59769,0.18763c0.10906,-0.02593 0.21791,-0.05294 0.32655,-0.08111c0.56599,-0.14672 1.13553,-0.39265 1.70941,-0.68074z" fill="#1505ff" stroke="none" stroke-width="0.5"/><path d="M123.74836,62.02289v-59.61623h131.15569v59.61623z" fill="#1505ff" stroke="url(#color-1)" stroke-width="0"/><path d="M137.37492,21.14319v-28.95645h106.45755v28.95646z" fill="#1505ff" stroke="none" stroke-width="0"/><path d="M406.49961,186.36531v-71.53947h40.02804v71.53948z" fill="#1505ff" stroke="none" stroke-width="0"/><path d="" fill="#1505ff" stroke="none" stroke-width="0"/><path d="M289.82213,21.99485v-23.84649h191.62359v23.84649z" fill="#1505ff" stroke="none" stroke-width="0"/><path d="M466.11583,63.72621v-3.40665h6.81328v3.40665z" fill="#1505ff" stroke="none" stroke-width="0"/><path d="M-0.59405,367.76897v-11.92324h244.42653v11.92324z" fill="#1505ff" stroke="none" stroke-width="0"/><path d="M-3.14904,367.76897v-372.17558h5.96163v372.17558z" fill="#1505ff" stroke="none" stroke-width="0"/><path d="M-3.14904,1.555v-12.7749h83.46272v12.77491z" fill="#1505ff" stroke="none" stroke-width="0"/><path d="M477.18742,363.51066v-123.76878c3.02283,-0.22762 6.00972,-0.54752 8.88678,-0.86848c1.29329,-0.14428 2.59053,-0.24985 3.88813,-0.35175v124.98901z" fill="#1505ff" stroke="none" stroke-width="0"/><path d="M477.18742,17.73655h12.7749v53.02287c-3.82731,0 -8.04055,-0.42342 -11.82175,0.12913c-0.31976,0.04673 -0.63734,0.0958 -0.95316,0.14658z" fill="#1505ff" stroke="none" stroke-width="0"/><path d="M405.64795,370.32395v-12.7749h92.83098v12.7749z" fill="#1505ff" stroke="none" stroke-width="0"/><path d="M236.16753,188.05088v-4.22282h57.06124v4.22282z" fill="#1505ff" stroke="none" stroke-width="0"/><path d="M334.10847,229.79998v-167.77709h55.35792v167.77709z" fill="#1505ff" stroke="none" stroke-width="0"/><path d="M466.11583,72.24281v-16.18155h18.73653v14.57392c-2.27672,-0.05946 -4.56395,-0.0605 -6.71178,0.25336c-2.87627,0.42031 -5.57638,1.03096 -8.40026,1.35427z" fill="#1505ff" stroke="none" stroke-width="0"/><path d="M151.85315,78.20444v-9.36826h84.31438v9.36826z" fill="#ffc705" stroke="none" stroke-width="0"/><path d="M79.46202,362.65899v-26.40147h72.39113v26.40147z" fill="#1505ff" stroke="none" stroke-width="0"/><path d="M236.16753,152.29887v-16.18155h57.06125v16.18155z" fill="#1505ff" stroke="none" stroke-width="0"/></g></g></svg>