<svg version="1.1" xmlns="http://www.w3.org/2000/svg" xmlns:xlink="http://www.w3.org/1999/xlink" width="514.05121" height="432.29181" viewBox="0,0,514.05121,432.29181"><g transform="translate(11.91564,13.17323)"><g data-paper-data="{&quot;isPaintingLayer&quot;:true}" fill-rule="nonzero" stroke-linecap="butt" stroke-linejoin="miter" stroke-miterlimit="10" stroke-dasharray="" stroke-dashoffset="0" style="mix-blend-mode: normal"><path d="M-0.59405,361.80733v-363.65898h481.18811v363.65898z" fill="#fcfeff" stroke="#1505ff" stroke-width="0.5"/><path d="M-7.40734,16.03321v-22.14317h501.62796v22.14317z" fill="#1505ff" stroke="#fcfeff" stroke-width="0.5"/><path d="M-11.66564,372.87892v-385.80215h31.51143v385.80215z" fill="#1505ff" stroke="#fcfeff" stroke-width="0.5"/><path d="M-9.11066,373.73058v-23.84649h503.33129v23.84649z" fill="#1505ff" stroke="#fcfeff" stroke-width="0.5"/><path d="M443.121,418.86858v-1.70332h3.40664v1.70332z" fill="#1505ff" stroke="#fcfeff" stroke-width="0.5"/><path d="M477.18742,387.35714v-395.17041h24.69815v395.17042z" fill="#1505ff" stroke="#fcfeff" stroke-width="0.5"/><path d="M122.04504,71.39113v-26.40147h118.38079v26.40147z" fill="#1505ff" stroke="#fcfeff" stroke-width="0.5"/><path d="M122.04504,198.28854v-129.45238h5.96162v129.45238z" fill="#1505ff" stroke="#fcfeff" stroke-width="0.5"/><path d="M233.61255,202.54684v-132.00736h5.96162v132.00736z" fill="#1505ff" stroke="#fcfeff" stroke-width="0.5"/><path d="M122.87304,354.14239v-159.26049h4.30562v159.26049z" fill="#1505ff" stroke="#fcfeff" stroke-width="0.5"/><path d="M232.05463,353.29073v-82.61105h8.05962v82.61105z" fill="#1505ff" stroke="#fcfeff" stroke-width="0.5"/><path d="M233.61255,201.69517v-18.73653h179.70034v18.73653z" fill="#1505ff" stroke="#fcfeff" stroke-width="0.5"/><path d="M387.76308,183.81031v-119.23245h23.84649v119.23245z" fill="#1505ff" stroke="#fcfeff" stroke-width="0.5"/><path d="M309.41032,56.06125v-44.28634h45.98966v44.28634z" fill="#ffffff" stroke="#fcfeff" stroke-width="0.5"/><path d="M114.3801,60.31955v-16.18154h132.00736v16.18155z" fill="#1505ff" stroke="#fcfeff" stroke-width="0.5"/><path d="M269.38228,16.03321v-11.07158h95.38596v11.07158z" fill="#1505ff" stroke="none" stroke-width="0"/><path d="M300.04206,110.56751v-98.7926h38.32472v98.7926z" fill="#1505ff" stroke="none" stroke-width="0"/><path d="M98.19855,53.50626v-16.18155h155.85385v16.18155z" fill="#fcfeff" stroke="none" stroke-width="0"/><path d="M109.27013,61.17121v-11.07158h145.63392v11.07158z" fill="#fcfeff" stroke="none" stroke-width="0"/><path d="M19.84579,351.72934v-7.94883h103.90257v7.94883z" fill="#1505ff" stroke="none" stroke-width="0"/><path d="M415.01621,353.29072v-33.21475h65.57785v33.21475z" fill="#1505ff" stroke="none" stroke-width="0"/><path d="M331.55349,282.60291v-83.46272h39.17638v83.46272z" fill="#1505ff" stroke="none" stroke-width="0"/><path d="M356.25164,265.5697v-17.03321h58.76457v17.03321z" fill="#1505ff" stroke="none" stroke-width="0"/><path d="M20.69745,348.46464v-9.93604h102.19925v9.93604z" fill="#05ff47" stroke="none" stroke-width="0"/><path d="M18.99413,348.18075v-17.88487h104.75423v17.88487z" fill="#05ff47" stroke="none" stroke-width="0"/></g></g></svg>